<?xml version="1.0" encoding="UTF-8" standalone="no"?>
<svg width="120px" height="298px" viewBox="0 0 120 298" version="1.1" xmlns="http://www.w3.org/2000/svg" xmlns:xlink="http://www.w3.org/1999/xlink" xmlns:sketch="http://www.bohemiancoding.com/sketch/ns">
    <!-- Generator: Sketch 3.0.3 (7891) - http://www.bohemiancoding.com/sketch -->
    <title>share_icon</title>
    <desc>Created with Sketch.</desc>
    <defs></defs>
    <g id="Page-1" stroke="none" stroke-width="1" fill="none" fill-rule="evenodd" sketch:type="MSPage">
        <g id="all" sketch:type="MSArtboardGroup" transform="translate(-289.000000, 0.000000)">
            <g id="share_icon" sketch:type="MSLayerGroup" transform="translate(289.000000, 1.000000)">
                <path d="M95.923,160.846 L81.517,160.846 L81.517,162.846 L95.923,162.846 L95.923,160.846 L95.923,160.846 Z M81.049,174.706 L96.393,174.706 L96.393,172.706 L92.276,172.706 L93.737,170.628 L91.815,169.94 L94.737,169.94 L94.737,164.081 L82.705,164.081 L82.705,169.94 L85.244,169.94 L83.642,170.862 C84.231,171.596 84.707,172.211 85.072,172.706 L81.049,172.706 L81.049,174.706 L81.049,174.706 Z M89.689,172.706 L86.494,172.706 L87.47,172.128 C87.126,171.654 86.556,170.925 85.759,169.941 L91.345,169.941 C90.804,170.904 90.252,171.825 89.689,172.706 L89.689,172.706 Z M84.892,168.034 L84.892,165.987 L92.548,165.987 L92.548,168.034 L84.892,168.034 L84.892,168.034 Z" id="Shape" fill="#A6A6A6" sketch:type="MSShapeGroup"></path>
                <path d="M41.049,214.706 L56.393,214.706 L56.393,212.706 L52.276,212.706 L53.737,210.628 L51.815,209.94 L54.737,209.94 L54.737,204.081 L42.705,204.081 L42.705,209.94 L45.244,209.94 L43.642,210.862 C44.231,211.596 44.707,212.211 45.072,212.706 L41.049,212.706 L41.049,214.706 L41.049,214.706 Z M49.689,212.706 L46.494,212.706 L47.471,212.128 C47.127,211.654 46.557,210.925 45.76,209.941 L51.346,209.941 C50.804,210.904 50.252,211.825 49.689,212.706 L49.689,212.706 Z M44.892,208.034 L44.892,205.987 L52.548,205.987 L52.548,208.034 L44.892,208.034 L44.892,208.034 Z M55.923,200.846 L41.517,200.846 L41.517,202.846 L55.923,202.846 L55.923,200.846 L55.923,200.846 Z" id="Shape" fill="#22A049" sketch:type="MSShapeGroup"></path>
                <path d="M1.049,214.706 L16.393,214.706 L16.393,212.706 L12.276,212.706 L13.737,210.628 L11.815,209.94 L14.737,209.94 L14.737,204.081 L2.705,204.081 L2.705,209.94 L5.244,209.94 L3.642,210.862 C4.231,211.596 4.707,212.211 5.072,212.706 L1.049,212.706 L1.049,214.706 L1.049,214.706 Z M9.689,212.706 L6.494,212.706 L7.471,212.128 C7.127,211.654 6.557,210.925 5.76,209.941 L11.346,209.941 C10.804,210.904 10.252,211.825 9.689,212.706 L9.689,212.706 Z M4.892,208.034 L4.892,205.987 L12.548,205.987 L12.548,208.034 L4.892,208.034 L4.892,208.034 Z M15.923,200.846 L1.517,200.846 L1.517,202.846 L15.923,202.846 L15.923,200.846 L15.923,200.846 Z" id="Shape" fill="#474747" sketch:type="MSShapeGroup"></path>
                <g id="Group" transform="translate(80.000000, 39.000000)" fill="#A6A6A6" sketch:type="MSShapeGroup">
                    <path d="M9,0 L6.218,5.596 L0,6.493 L1.481,7.927 C2.017,7.74 3.785,7.059 5.985,6.81 C8.822,6.488 12.764,6.815 12.764,6.815 C12.764,6.815 11.821,8.149 9.627,9.321 C8.326,10.017 7.494,10.697 7.391,10.828 L9.777,10.869 C10.323,10.874 10.847,10.885 11.391,10.882 C11.662,10.881 11.922,10.878 12.19,10.869 C12.46,10.863 12.703,10.842 12.982,10.819 C13.188,10.803 13.391,10.782 13.593,10.759 L18,6.493 L11.781,5.595 L9,0 L9,0 Z" id="Shape"></path>
                    <path d="M11.388,6.869 L11.388,6.869 L11.388,6.868 L11.388,6.869 Z" id="Shape"></path>
                    <path d="M8.103,9.403 C10.233,8.254 10.655,7.791 10.812,7.62 C10.65,7.612 9.259,7.404 6.026,7.527 C3.775,7.613 2.168,7.997 1.652,8.092 L4.499,10.848 L3.438,17 L9,14.096 L14.562,17 L13.614,11.512 C13.438,11.551 13.262,11.587 13.088,11.621 C12.824,11.675 12.528,11.725 12.251,11.758 C11.972,11.793 11.696,11.823 11.419,11.85 C10.868,11.903 10.317,11.952 9.767,11.989 L8.118,12.091 C7.568,12.117 7.019,12.145 6.466,12.162 L5.719,12.183 C5.719,12.183 5.643,11.771 5.803,11.332 C5.965,10.89 7.096,9.946 8.103,9.403 L8.103,9.403 Z" id="Shape"></path>
                </g>
                <g id="Group" transform="translate(40.000000, 39.000000)" fill="#EAAF00" sketch:type="MSShapeGroup">
                    <path d="M9,0 L6.218,5.596 L0,6.493 L1.481,7.927 C2.017,7.74 3.785,7.059 5.985,6.81 C8.822,6.488 12.764,6.815 12.764,6.815 C12.764,6.815 11.821,8.149 9.627,9.321 C8.326,10.017 7.494,10.697 7.391,10.828 L9.777,10.869 C10.323,10.874 10.847,10.885 11.391,10.882 C11.662,10.881 11.922,10.878 12.19,10.869 C12.461,10.863 12.704,10.842 12.982,10.819 C13.188,10.803 13.391,10.782 13.593,10.759 L18,6.493 L11.781,5.595 L9,0 L9,0 Z" id="Shape"></path>
                    <path d="M11.388,6.869 L11.388,6.869 L11.388,6.868 L11.388,6.869 Z" id="Shape"></path>
                    <path d="M8.103,9.403 C10.233,8.254 10.655,7.791 10.812,7.62 C10.65,7.612 9.259,7.404 6.026,7.527 C3.775,7.613 2.168,7.997 1.652,8.092 L4.499,10.848 L3.438,17 L9,14.096 L14.562,17 L13.614,11.512 C13.438,11.551 13.262,11.587 13.088,11.621 C12.824,11.675 12.528,11.725 12.251,11.758 C11.972,11.793 11.696,11.823 11.419,11.85 C10.868,11.903 10.317,11.952 9.767,11.989 L8.118,12.091 C7.568,12.117 7.019,12.145 6.466,12.162 L5.719,12.183 C5.719,12.183 5.643,11.771 5.803,11.332 C5.965,10.89 7.096,9.946 8.103,9.403 L8.103,9.403 Z" id="Shape"></path>
                </g>
                <g id="Group" transform="translate(0.000000, 39.000000)" fill="#474747" sketch:type="MSShapeGroup">
                    <path d="M8.103,9.403 C10.233,8.254 10.655,7.791 10.812,7.62 C10.65,7.612 9.259,7.404 6.026,7.527 C3.775,7.613 2.168,7.997 1.652,8.092 L4.5,10.849 L3.438,17 L9,14.096 L14.562,17 L13.614,11.512 C13.438,11.551 13.262,11.587 13.088,11.621 C12.824,11.675 12.528,11.725 12.251,11.758 C11.972,11.793 11.696,11.823 11.419,11.85 C10.868,11.903 10.317,11.952 9.767,11.989 L8.119,12.09 C7.569,12.116 7.02,12.144 6.467,12.161 L5.72,12.182 C5.72,12.182 5.644,11.77 5.804,11.331 C5.965,10.89 7.096,9.946 8.103,9.403 L8.103,9.403 Z" id="Shape"></path>
                    <path d="M9,0 L6.218,5.596 L0,6.493 L1.481,7.927 C2.017,7.74 3.785,7.059 5.985,6.81 C8.822,6.488 12.764,6.815 12.764,6.815 C12.764,6.815 11.821,8.149 9.627,9.321 C8.326,10.017 7.494,10.697 7.391,10.828 L9.777,10.869 C10.323,10.874 10.847,10.885 11.391,10.882 C11.662,10.881 11.923,10.878 12.19,10.869 C12.461,10.863 12.704,10.842 12.982,10.819 C13.188,10.803 13.391,10.782 13.593,10.759 L18,6.493 L11.781,5.595 L9,0 L9,0 Z" id="Shape"></path>
                    <path d="M11.388,6.869 L11.388,6.869 L11.388,6.868 L11.388,6.869 Z" id="Shape"></path>
                </g>
                <g id="Group" transform="translate(80.000000, 0.000000)" fill="#A6A6A6" sketch:type="MSShapeGroup">
                    <path d="M12.4,1.169 C14.837,1.169 16.819,3.133 16.819,5.547 C16.819,5.87 17.083,6.132 17.409,6.132 C17.735,6.132 17.999,5.87 17.999,5.547 C18,2.489 15.488,0 12.4,0 C12.074,0 11.81,0.262 11.81,0.584 C11.81,0.907 12.074,1.169 12.4,1.169 L12.4,1.169 Z" id="Shape"></path>
                    <path d="M12.348,1.981 C12.063,1.981 11.831,2.21 11.831,2.493 C11.831,2.775 12.062,3.005 12.348,3.005 C13.735,3.005 14.863,4.123 14.863,5.497 C14.863,5.779 15.094,6.008 15.379,6.008 C15.664,6.008 15.895,5.779 15.895,5.497 C15.896,3.557 14.305,1.981 12.348,1.981 L12.348,1.981 Z" id="Shape"></path>
                    <path d="M15.198,9.195 C14.599,7.726 12.101,7.854 12.101,7.854 C12.101,7.854 12.878,6.176 12.153,5.637 C11.424,5.096 9.446,5.328 7.781,6.385 C7.755,5.302 8.067,3.369 7.208,3.137 C6.223,2.871 4.666,3.623 2.862,5.508 C0.963,7.493 0,9.272 0,11.412 C0,13.551 1.77,16 6.532,16 C11.294,16 16.427,12.214 15.198,9.195 L15.198,9.195 Z M7.359,15.04 C4.219,15.347 1.519,14.042 1.328,12.126 C1.137,10.209 3.528,8.407 6.668,8.1 C9.808,7.793 12.508,9.098 12.699,11.014 C12.889,12.931 10.499,14.733 7.359,15.04 L7.359,15.04 Z" id="Shape"></path>
                    <path d="M8.738,10.491 C8.072,9.4 6.461,9.157 5.139,9.949 C3.817,10.741 3.285,12.267 3.951,13.358 C4.617,14.449 6.228,14.692 7.55,13.901 C8.872,13.108 9.404,11.582 8.738,10.491 L8.738,10.491 Z M6.245,12.882 C5.8,13.149 5.259,13.07 5.038,12.707 C4.817,12.344 4.998,11.834 5.443,11.567 C5.888,11.3 6.429,11.378 6.65,11.742 C6.871,12.105 6.69,12.615 6.245,12.882 L6.245,12.882 Z" id="Shape"></path>
                    <path d="M12.166,4.606 C12.762,4.606 13.246,5.086 13.246,5.676 C13.246,5.918 13.444,6.114 13.689,6.114 C13.933,6.114 14.132,5.918 14.132,5.676 C14.132,4.603 13.25,3.729 12.167,3.729 C11.923,3.729 11.725,3.926 11.725,4.167 C11.724,4.41 11.922,4.606 12.166,4.606 L12.166,4.606 Z" id="Shape"></path>
                </g>
                <g id="Group" transform="translate(40.000000, 0.000000)" fill="#D6332A" sketch:type="MSShapeGroup">
                    <path d="M15.198,9.195 C14.599,7.726 12.101,7.854 12.101,7.854 C12.101,7.854 12.878,6.176 12.153,5.637 C11.424,5.096 9.446,5.328 7.781,6.385 C7.755,5.302 8.067,3.369 7.208,3.137 C6.223,2.871 4.666,3.623 2.862,5.508 C0.963,7.493 0,9.272 0,11.412 C0,13.551 1.77,16 6.532,16 C11.294,16 16.427,12.214 15.198,9.195 L15.198,9.195 Z M7.359,15.04 C4.219,15.347 1.519,14.042 1.328,12.126 C1.137,10.209 3.528,8.407 6.668,8.1 C9.808,7.793 12.508,9.098 12.699,11.014 C12.889,12.931 10.499,14.733 7.359,15.04 L7.359,15.04 Z" id="Shape"></path>
                    <path d="M8.738,10.491 C8.072,9.4 6.461,9.157 5.139,9.949 C3.817,10.741 3.286,12.267 3.951,13.358 C4.617,14.449 6.228,14.692 7.55,13.901 C8.872,13.108 9.404,11.582 8.738,10.491 L8.738,10.491 Z M6.245,12.882 C5.8,13.149 5.259,13.07 5.038,12.707 C4.817,12.344 4.998,11.834 5.443,11.567 C5.888,11.3 6.429,11.378 6.65,11.742 C6.871,12.105 6.69,12.615 6.245,12.882 L6.245,12.882 Z" id="Shape"></path>
                    <path d="M12.166,4.606 C12.762,4.606 13.246,5.086 13.246,5.676 C13.246,5.918 13.444,6.114 13.689,6.114 C13.934,6.114 14.132,5.918 14.132,5.676 C14.132,4.603 13.25,3.729 12.167,3.729 C11.923,3.729 11.725,3.926 11.725,4.167 C11.724,4.41 11.922,4.606 12.166,4.606 L12.166,4.606 Z" id="Shape"></path>
                    <path d="M12.348,3.004 C13.735,3.004 14.863,4.122 14.863,5.496 C14.863,5.778 15.094,6.007 15.379,6.007 C15.664,6.007 15.895,5.778 15.895,5.496 C15.895,3.557 14.303,1.981 12.347,1.981 C12.062,1.981 11.83,2.21 11.83,2.493 C11.832,2.775 12.063,3.004 12.348,3.004 L12.348,3.004 Z" id="Shape"></path>
                    <path d="M12.4,4.4408921e-16 C12.074,4.4408921e-16 11.81,0.262 11.81,0.584 C11.81,0.907 12.074,1.169 12.4,1.169 C14.837,1.169 16.819,3.133 16.819,5.547 C16.819,5.87 17.083,6.132 17.409,6.132 C17.735,6.132 17.999,5.87 17.999,5.547 C18,2.489 15.488,4.4408921e-16 12.4,4.4408921e-16 L12.4,4.4408921e-16 Z" id="Shape"></path>
                </g>
                <g id="Group" fill="#474747" sketch:type="MSShapeGroup">
                    <path d="M12.166,4.606 C12.762,4.606 13.246,5.086 13.246,5.676 C13.246,5.918 13.444,6.114 13.689,6.114 C13.933,6.114 14.132,5.918 14.132,5.676 C14.132,4.603 13.25,3.729 12.167,3.729 C11.923,3.729 11.725,3.926 11.725,4.167 C11.724,4.41 11.922,4.606 12.166,4.606 L12.166,4.606 Z" id="Shape"></path>
                    <path d="M8.738,10.491 C8.072,9.4 6.461,9.157 5.139,9.949 C3.817,10.741 3.285,12.267 3.951,13.358 C4.617,14.449 6.228,14.692 7.55,13.901 C8.872,13.108 9.404,11.582 8.738,10.491 L8.738,10.491 Z M6.245,12.882 C5.8,13.149 5.259,13.07 5.038,12.707 C4.817,12.344 4.998,11.834 5.443,11.567 C5.888,11.3 6.429,11.378 6.65,11.742 C6.871,12.105 6.69,12.615 6.245,12.882 L6.245,12.882 Z" id="Shape"></path>
                    <path d="M12.348,3.004 C13.735,3.004 14.863,4.122 14.863,5.496 C14.863,5.778 15.094,6.007 15.379,6.007 C15.664,6.007 15.895,5.778 15.895,5.496 C15.895,3.557 14.303,1.981 12.347,1.981 C12.061,1.981 11.83,2.21 11.83,2.493 C11.832,2.775 12.063,3.004 12.348,3.004 L12.348,3.004 Z" id="Shape"></path>
                    <path d="M15.198,9.195 C14.599,7.726 12.101,7.854 12.101,7.854 C12.101,7.854 12.878,6.176 12.153,5.637 C11.424,5.096 9.447,5.328 7.781,6.385 C7.755,5.302 8.067,3.369 7.208,3.137 C6.224,2.87 4.667,3.623 2.863,5.508 C0.963,7.493 0,9.272 0,11.412 C0,13.551 1.77,16 6.532,16 C11.294,16 16.427,12.214 15.198,9.195 L15.198,9.195 Z M7.359,15.04 C4.219,15.347 1.519,14.042 1.328,12.126 C1.137,10.209 3.528,8.407 6.668,8.1 C9.808,7.793 12.508,9.098 12.699,11.014 C12.889,12.931 10.499,14.733 7.359,15.04 L7.359,15.04 Z" id="Shape"></path>
                    <path d="M12.4,4.4408921e-16 C12.074,4.4408921e-16 11.81,0.262 11.81,0.584 C11.81,0.907 12.074,1.169 12.4,1.169 C14.837,1.169 16.819,3.133 16.819,5.547 C16.819,5.87 17.083,6.132 17.409,6.132 C17.735,6.132 17.999,5.87 17.999,5.547 C18,2.489 15.488,4.4408921e-16 12.4,4.4408921e-16 L12.4,4.4408921e-16 Z" id="Shape"></path>
                </g>
                <g id="Group" transform="translate(1.000000, 126.000000)" fill="#474747" sketch:type="MSShapeGroup">
                    <circle id="Oval" cx="2" cy="2" r="2"></circle>
                    <circle id="Oval" cx="8" cy="2" r="2"></circle>
                    <circle id="Oval" cx="14" cy="2" r="2"></circle>
                </g>
                <path d="M95.425,127.159 C95.645,126.752 95.623,126.265 95.466,125.81 C95.373,125.539 95.152,125.337 95.084,125.115 C95.029,124.937 95.024,124.73 95.002,124.554 C94.978,124.364 94.939,124.181 94.893,124.006 C94.61,122.919 94.206,122.118 93.514,121.441 C93.072,121.009 92.543,120.72 91.875,120.439 C90.625,119.912 88.696,119.872 87.342,120.305 C85.988,120.738 85.19,121.628 84.488,122.723 C84.1,123.329 83.835,124.081 83.819,125.008 C83.642,125.195 83.538,125.583 83.546,125.863 C83.321,126.155 83.108,126.693 83.287,127.173 C82.161,128.044 81.23,129.106 81.007,130.861 L81.007,131.543 C81.049,131.817 81.093,132.282 81.307,132.331 C81.415,132.356 81.59,132.285 81.689,132.238 C81.972,132.103 82.233,131.776 82.399,131.583 C82.478,131.438 82.519,131.255 82.645,131.155 C82.717,131.274 82.734,131.405 82.782,131.529 C82.829,131.651 82.883,131.773 82.932,131.89 C83.238,132.614 83.768,133.108 84.338,133.56 C83.759,133.639 83.259,133.747 83.041,134.135 C82.893,134.398 82.885,134.918 83.027,135.15 C83.44,135.826 84.776,135.893 85.744,135.992 L86.7,135.992 C87.542,135.966 88.185,135.704 88.762,135.377 C88.844,135.331 88.94,135.241 89.008,135.23 C89.069,135.22 89.228,135.248 89.363,135.257 C89.486,135.265 89.635,135.255 89.732,135.27 C89.848,135.288 89.977,135.364 90.101,135.403 C90.234,135.446 90.369,135.481 90.497,135.523 C91.846,135.966 94.256,136.059 95.276,135.336 C95.428,135.229 95.616,135.022 95.658,134.815 C95.736,134.433 95.456,134.202 95.248,134.04 C94.922,133.784 94.515,133.61 94.156,133.412 C94.483,133.09 94.783,132.71 94.989,132.276 C95.136,131.968 95.211,131.63 95.412,131.381 C95.519,131.595 95.637,131.796 95.781,132.009 C95.903,132.191 96.072,132.468 96.314,132.463 C96.525,132.459 96.732,132.191 96.819,131.995 C97.173,131.197 96.918,129.937 96.614,129.256 C96.238,128.415 95.85,127.759 95.425,127.159 L95.425,127.159 Z" id="Shape" fill="#A6A6A6" sketch:type="MSShapeGroup"></path>
                <g id="Group" transform="translate(41.000000, 126.000000)" fill="#474747" sketch:type="MSShapeGroup">
                    <circle id="Oval" cx="2" cy="2" r="2"></circle>
                    <circle id="Oval" cx="8" cy="2" r="2"></circle>
                    <circle id="Oval" cx="14" cy="2" r="2"></circle>
                </g>
                <g id="Group" transform="translate(2.000000, 79.000000)" fill="#474747" sketch:type="MSShapeGroup">
                    <path d="M0.987,17.852 L1.03,17.852 C1.022,17.902 1,17.948 1,18 C1,18.552 1.448,19 2,19 C2.552,19 3,18.552 3,18 C3,17.947 2.978,17.902 2.97,17.852 L3.03,17.852 C3.683,14.323 5.013,12.027 6.841,9.871 C6.883,9.822 6.919,9.768 6.95,9.712 C7.125,9.763 7.308,9.791 7.499,9.791 C8.618,9.791 9.525,8.866 9.525,7.726 C9.525,6.585 8.618,5.661 7.499,5.661 C6.38,5.661 5.473,6.586 5.473,7.726 C5.473,7.944 5.507,8.154 5.568,8.351 C5.484,8.404 5.405,8.466 5.338,8.545 C3.211,11.054 1.675,13.686 0.987,17.852 L0.987,17.852 Z" id="Shape"></path>
                    <path d="M7.5,0 C3.364,0 0,3.43 0,7.646 C0,8.81 0.25,9.927 0.742,10.967 C0.981,11.471 1.575,11.682 2.069,11.439 C2.563,11.196 2.77,10.59 2.532,10.086 C2.171,9.322 1.987,8.501 1.987,7.646 C1.987,4.547 4.459,2.026 7.499,2.026 C10.539,2.026 13.011,4.547 13.011,7.646 C13.011,10.745 10.538,13.266 7.499,13.266 C7.148,13.266 6.796,13.232 6.456,13.166 C5.917,13.06 5.396,13.421 5.293,13.971 C5.19,14.521 5.543,15.051 6.082,15.156 C6.546,15.247 7.023,15.292 7.499,15.292 C11.634,15.292 14.999,11.862 14.999,7.646 C15,3.43 11.635,0 7.5,0 L7.5,0 Z" id="Shape"></path>
                </g>
                <g id="Group" transform="translate(82.000000, 79.000000)" fill="#A6A6A6" sketch:type="MSShapeGroup">
                    <path d="M7.5,0 C3.365,0 0,3.43 0,7.646 C0,8.81 0.25,9.927 0.742,10.967 C0.981,11.471 1.575,11.682 2.069,11.439 C2.563,11.196 2.77,10.59 2.532,10.086 C2.171,9.322 1.987,8.501 1.987,7.646 C1.987,4.547 4.459,2.026 7.499,2.026 C10.539,2.026 13.011,4.547 13.011,7.646 C13.011,10.745 10.538,13.266 7.499,13.266 C7.148,13.266 6.796,13.232 6.456,13.166 C5.917,13.06 5.396,13.421 5.293,13.971 C5.19,14.521 5.543,15.051 6.082,15.156 C6.546,15.247 7.023,15.292 7.499,15.292 C11.634,15.292 14.999,11.862 14.999,7.646 C15,3.43 11.635,0 7.5,0 L7.5,0 Z" id="Shape"></path>
                    <path d="M0.987,17.852 L1.03,17.852 C1.022,17.902 1,17.948 1,18 C1,18.552 1.448,19 2,19 C2.552,19 3,18.552 3,18 C3,17.947 2.978,17.902 2.97,17.852 L3.03,17.852 C3.683,14.323 5.013,12.027 6.841,9.871 C6.883,9.822 6.919,9.768 6.95,9.712 C7.125,9.763 7.308,9.791 7.499,9.791 C8.618,9.791 9.525,8.866 9.525,7.726 C9.525,6.585 8.618,5.661 7.499,5.661 C6.38,5.661 5.473,6.586 5.473,7.726 C5.473,7.944 5.507,8.154 5.568,8.351 C5.484,8.404 5.405,8.466 5.338,8.545 C3.211,11.054 1.675,13.686 0.987,17.852 L0.987,17.852 Z" id="Shape"></path>
                </g>
                <g id="Group" transform="translate(42.000000, 79.000000)" fill="#42ADCF" sketch:type="MSShapeGroup">
                    <path d="M7.5,0 C3.365,0 0,3.43 0,7.646 C0,8.81 0.25,9.927 0.742,10.967 C0.981,11.471 1.575,11.682 2.069,11.439 C2.563,11.196 2.77,10.59 2.532,10.086 C2.171,9.322 1.987,8.501 1.987,7.646 C1.987,4.547 4.459,2.026 7.499,2.026 C10.539,2.026 13.011,4.547 13.011,7.646 C13.011,10.745 10.538,13.266 7.499,13.266 C7.148,13.266 6.796,13.232 6.456,13.166 C5.917,13.06 5.396,13.421 5.293,13.971 C5.19,14.521 5.543,15.051 6.082,15.156 C6.546,15.247 7.023,15.292 7.499,15.292 C11.634,15.292 14.999,11.862 14.999,7.646 C15,3.43 11.635,0 7.5,0 L7.5,0 Z" id="Shape"></path>
                    <path d="M0.987,17.852 L1.03,17.852 C1.022,17.902 1,17.948 1,18 C1,18.552 1.448,19 2,19 C2.552,19 3,18.552 3,18 C3,17.947 2.978,17.902 2.97,17.852 L3.03,17.852 C3.683,14.323 5.013,12.027 6.841,9.871 C6.883,9.822 6.919,9.768 6.95,9.712 C7.125,9.763 7.308,9.791 7.499,9.791 C8.618,9.791 9.525,8.866 9.525,7.726 C9.525,6.585 8.618,5.661 7.499,5.661 C6.38,5.661 5.473,6.586 5.473,7.726 C5.473,7.944 5.507,8.154 5.568,8.351 C5.484,8.404 5.405,8.466 5.338,8.545 C3.211,11.054 1.675,13.686 0.987,17.852 L0.987,17.852 Z" id="Shape"></path>
                </g>
                <path d="M15.425,167.159 C15.645,166.752 15.623,166.265 15.466,165.81 C15.373,165.539 15.152,165.337 15.084,165.115 C15.029,164.937 15.025,164.73 15.002,164.554 C14.978,164.364 14.939,164.181 14.893,164.006 C14.61,162.919 14.206,162.118 13.514,161.441 C13.073,161.009 12.543,160.72 11.875,160.439 C10.625,159.912 8.696,159.872 7.342,160.305 C5.988,160.738 5.19,161.628 4.488,162.723 C4.1,163.329 3.835,164.081 3.819,165.008 C3.642,165.195 3.538,165.583 3.546,165.863 C3.321,166.155 3.108,166.693 3.287,167.173 C2.161,168.044 1.23,169.106 1.007,170.861 L1.007,171.542 C1.049,171.816 1.093,172.281 1.307,172.33 C1.416,172.355 1.59,172.284 1.689,172.237 C1.972,172.102 2.233,171.775 2.399,171.582 C2.478,171.437 2.519,171.254 2.645,171.154 C2.717,171.273 2.734,171.404 2.782,171.528 C2.829,171.65 2.883,171.772 2.932,171.889 C3.238,172.613 3.768,173.107 4.338,173.559 C3.759,173.638 3.259,173.746 3.041,174.134 C2.893,174.397 2.885,174.917 3.027,175.149 C3.44,175.825 4.776,175.892 5.744,175.991 L6.7,175.991 C7.542,175.965 8.185,175.703 8.762,175.376 C8.844,175.33 8.94,175.24 9.008,175.229 C9.069,175.219 9.228,175.247 9.363,175.256 C9.486,175.264 9.635,175.254 9.732,175.269 C9.848,175.287 9.977,175.363 10.101,175.402 C10.234,175.445 10.369,175.48 10.497,175.522 C11.846,175.965 14.256,176.058 15.276,175.335 C15.428,175.228 15.616,175.021 15.658,174.814 C15.736,174.432 15.456,174.201 15.249,174.039 C14.923,173.783 14.516,173.609 14.157,173.411 C14.484,173.089 14.784,172.709 14.99,172.275 C15.137,171.967 15.212,171.629 15.413,171.38 C15.519,171.594 15.638,171.795 15.782,172.008 C15.904,172.19 16.073,172.467 16.315,172.462 C16.526,172.458 16.733,172.19 16.82,171.994 C17.174,171.196 16.919,169.936 16.615,169.255 C16.238,168.415 15.85,167.759 15.425,167.159 L15.425,167.159 Z" id="Shape" fill="#474747" sketch:type="MSShapeGroup"></path>
                <path d="M55.425,167.159 C55.645,166.752 55.623,166.265 55.466,165.81 C55.373,165.539 55.152,165.337 55.084,165.115 C55.029,164.937 55.025,164.73 55.002,164.554 C54.978,164.364 54.939,164.181 54.893,164.006 C54.61,162.919 54.206,162.118 53.514,161.441 C53.073,161.009 52.543,160.72 51.875,160.439 C50.625,159.912 48.696,159.872 47.342,160.305 C45.988,160.738 45.19,161.628 44.488,162.723 C44.1,163.329 43.835,164.081 43.819,165.008 C43.642,165.195 43.538,165.583 43.546,165.863 C43.321,166.155 43.108,166.693 43.287,167.173 C42.161,168.044 41.23,169.106 41.007,170.861 L41.007,171.542 C41.049,171.816 41.093,172.281 41.307,172.33 C41.415,172.355 41.59,172.284 41.689,172.237 C41.972,172.102 42.233,171.775 42.399,171.582 C42.478,171.437 42.519,171.254 42.645,171.154 C42.717,171.273 42.734,171.404 42.782,171.528 C42.829,171.65 42.883,171.772 42.932,171.889 C43.238,172.613 43.768,173.107 44.338,173.559 C43.759,173.638 43.259,173.746 43.041,174.134 C42.893,174.397 42.885,174.917 43.027,175.149 C43.44,175.825 44.776,175.892 45.744,175.991 L46.7,175.991 C47.542,175.965 48.185,175.703 48.762,175.376 C48.844,175.33 48.94,175.24 49.008,175.229 C49.069,175.219 49.228,175.247 49.363,175.256 C49.486,175.264 49.635,175.254 49.732,175.269 C49.848,175.287 49.977,175.363 50.101,175.402 C50.234,175.445 50.369,175.48 50.497,175.522 C51.846,175.965 54.256,176.058 55.276,175.335 C55.428,175.228 55.616,175.021 55.658,174.814 C55.736,174.432 55.456,174.201 55.249,174.039 C54.923,173.783 54.516,173.609 54.157,173.411 C54.484,173.089 54.784,172.709 54.99,172.275 C55.137,171.967 55.212,171.629 55.413,171.38 C55.52,171.594 55.638,171.795 55.782,172.008 C55.904,172.19 56.073,172.467 56.315,172.462 C56.526,172.458 56.733,172.19 56.82,171.994 C57.174,171.196 56.919,169.936 56.615,169.255 C56.238,168.415 55.85,167.759 55.425,167.159 L55.425,167.159 Z" id="Shape" fill="#2A9CD5" sketch:type="MSShapeGroup"></path>
                <g id="Group" transform="translate(81.000000, 200.000000)" fill="#A6A6A6" sketch:type="MSShapeGroup">
                    <path d="M7.872,10.053 C6.959,11.931 5.567,13.535 3.857,14.705 C5.027,15.377 6.382,15.764 7.829,15.764 C9.295,15.764 10.667,15.367 11.848,14.678 C10.155,13.51 8.778,11.917 7.872,10.053 L7.872,10.053 Z" id="Shape"></path>
                    <path d="M6.592,-0.108 C2.77,0.486 -0.155,3.792 -0.155,7.78 C-0.155,9.802 0.598,11.647 1.838,13.054 C4.676,11.421 6.593,8.36 6.593,4.857 L6.593,-0.108 L6.592,-0.108 Z" id="Shape"></path>
                    <path d="M9.153,-0.108 L9.153,4.857 C9.153,8.36 11.07,11.421 13.908,13.054 C15.147,11.647 15.9,9.802 15.9,7.78 C15.9,3.792 12.975,0.487 9.153,-0.108 L9.153,-0.108 Z" id="Shape"></path>
                </g>
                <g id="Group" transform="translate(41.000000, 240.000000)" fill="#337AC5" sketch:type="MSShapeGroup">
                    <path d="M6.592,-0.108 C2.77,0.486 -0.155,3.792 -0.155,7.78 C-0.155,9.802 0.598,11.647 1.838,13.054 C4.676,11.421 6.593,8.36 6.593,4.857 L6.593,-0.108 L6.592,-0.108 Z" id="Shape"></path>
                    <path d="M7.872,10.053 C6.959,11.931 5.567,13.535 3.857,14.705 C5.027,15.377 6.382,15.764 7.829,15.764 C9.295,15.764 10.667,15.367 11.848,14.678 C10.155,13.51 8.778,11.917 7.872,10.053 L7.872,10.053 Z" id="Shape"></path>
                    <path d="M9.153,-0.108 L9.153,4.857 C9.153,8.36 11.07,11.421 13.908,13.054 C15.147,11.647 15.9,9.802 15.9,7.78 C15.9,3.792 12.975,0.487 9.153,-0.108 L9.153,-0.108 Z" id="Shape"></path>
                </g>
                <g id="Group" transform="translate(1.000000, 240.000000)" fill="#474747" sketch:type="MSShapeGroup">
                    <path d="M9.153,-0.108 L9.153,4.857 C9.153,8.36 11.07,11.421 13.908,13.054 C15.147,11.647 15.9,9.802 15.9,7.78 C15.9,3.792 12.975,0.487 9.153,-0.108 L9.153,-0.108 Z" id="Shape"></path>
                    <path d="M6.592,-0.108 C2.77,0.486 -0.155,3.792 -0.155,7.78 C-0.155,9.802 0.598,11.647 1.838,13.054 C4.676,11.421 6.593,8.36 6.593,4.857 L6.593,-0.108 L6.592,-0.108 Z" id="Shape"></path>
                    <path d="M7.872,10.053 C6.959,11.931 5.567,13.535 3.857,14.705 C5.027,15.377 6.382,15.764 7.829,15.764 C9.295,15.764 10.667,15.367 11.848,14.678 C10.155,13.51 8.778,11.917 7.872,10.053 L7.872,10.053 Z" id="Shape"></path>
                </g>
                <path d="M109.636,2 L114.5,6.864 L119.364,2 L109.636,2 Z" id="Shape" fill="#000000" sketch:type="MSShapeGroup"></path>
                <path d="M14.8528987,294.568599 C14.1395633,294.845242 13.3418707,295 12.5,295 C9.46243388,295 7,292.985281 7,290.5 C7,288.014719 9.46243388,286 12.5,286 C15.5375661,286 18,288.014719 18,290.5 C18,291.79506 17.3313587,292.962345 16.2611211,293.783363 L17,296 L14.8528987,294.568599 Z M12.7567308,285.004211 C11.9867321,282.693553 9.47710039,281 6.5,281 C2.91014913,281 0,283.462434 0,286.5 C0,288.13885 0.847114234,289.610284 2.1910492,290.617902 L2.1910492,290.617902 L1,293 L4.30428524,291.678286 C4.9136381,291.863304 5.56512254,291.973501 6.24326919,291.995789 C6.0847871,291.520206 6,291.018481 6,290.5 C6,287.462434 8.91014913,285 12.5,285 C12.585977,285 12.6715642,285.001412 12.7567308,285.004211 L12.7567308,285.004211 Z M4.5,285 C4.77614237,285 5,284.552285 5,284 C5,283.447715 4.77614237,283 4.5,283 C4.22385763,283 4,283.447715 4,284 C4,284.552285 4.22385763,285 4.5,285 Z M8.5,285 C8.77614237,285 9,284.552285 9,284 C9,283.447715 8.77614237,283 8.5,283 C8.22385763,283 8,283.447715 8,284 C8,284.552285 8.22385763,285 8.5,285 Z M10.5,290 C10.7761424,290 11,289.552285 11,289 C11,288.447715 10.7761424,288 10.5,288 C10.2238576,288 10,288.447715 10,289 C10,289.552285 10.2238576,290 10.5,290 Z M14.5,290 C14.7761424,290 15,289.552285 15,289 C15,288.447715 14.7761424,288 14.5,288 C14.2238576,288 14,288.447715 14,289 C14,289.552285 14.2238576,290 14.5,290 Z" id="Oval-15" fill="#474747" sketch:type="MSShapeGroup"></path>
                <path d="M54.8528987,294.568599 C54.1395633,294.845242 53.3418707,295 52.5,295 C49.4624339,295 47,292.985281 47,290.5 C47,288.014719 49.4624339,286 52.5,286 C55.5375661,286 58,288.014719 58,290.5 C58,291.79506 57.3313587,292.962345 56.2611211,293.783363 L57,296 L54.8528987,294.568599 Z M52.7567308,285.004211 C51.9867321,282.693553 49.4771004,281 46.5,281 C42.9101491,281 40,283.462434 40,286.5 C40,288.13885 40.8471142,289.610284 42.1910492,290.617902 L42.1910492,290.617902 L41,293 L44.3042852,291.678286 C44.9136381,291.863304 45.5651225,291.973501 46.2432692,291.995789 C46.0847871,291.520206 46,291.018481 46,290.5 C46,287.462434 48.9101491,285 52.5,285 C52.585977,285 52.6715642,285.001412 52.7567308,285.004211 L52.7567308,285.004211 Z M44.5,285 C44.7761424,285 45,284.552285 45,284 C45,283.447715 44.7761424,283 44.5,283 C44.2238576,283 44,283.447715 44,284 C44,284.552285 44.2238576,285 44.5,285 Z M48.5,285 C48.7761424,285 49,284.552285 49,284 C49,283.447715 48.7761424,283 48.5,283 C48.2238576,283 48,283.447715 48,284 C48,284.552285 48.2238576,285 48.5,285 Z M50.5,290 C50.7761424,290 51,289.552285 51,289 C51,288.447715 50.7761424,288 50.5,288 C50.2238576,288 50,288.447715 50,289 C50,289.552285 50.2238576,290 50.5,290 Z M54.5,290 C54.7761424,290 55,289.552285 55,289 C55,288.447715 54.7761424,288 54.5,288 C54.2238576,288 54,288.447715 54,289 C54,289.552285 54.2238576,290 54.5,290 Z" id="Oval-16" fill="#60B400" sketch:type="MSShapeGroup"></path>
                <path d="M94.8528987,294.568599 C94.1395633,294.845242 93.3418707,295 92.5,295 C89.4624339,295 87,292.985281 87,290.5 C87,288.014719 89.4624339,286 92.5,286 C95.5375661,286 98,288.014719 98,290.5 C98,291.79506 97.3313587,292.962345 96.2611211,293.783363 L97,296 L94.8528987,294.568599 Z M92.7567308,285.004211 C91.9867321,282.693553 89.4771004,281 86.5,281 C82.9101491,281 80,283.462434 80,286.5 C80,288.13885 80.8471142,289.610284 82.1910492,290.617902 L82.1910492,290.617902 L81,293 L84.3042852,291.678286 C84.9136381,291.863304 85.5651225,291.973501 86.2432692,291.995789 C86.0847871,291.520206 86,291.018481 86,290.5 C86,287.462434 88.9101491,285 92.5,285 C92.585977,285 92.6715642,285.001412 92.7567308,285.004211 L92.7567308,285.004211 Z M84.5,285 C84.7761424,285 85,284.552285 85,284 C85,283.447715 84.7761424,283 84.5,283 C84.2238576,283 84,283.447715 84,284 C84,284.552285 84.2238576,285 84.5,285 Z M88.5,285 C88.7761424,285 89,284.552285 89,284 C89,283.447715 88.7761424,283 88.5,283 C88.2238576,283 88,283.447715 88,284 C88,284.552285 88.2238576,285 88.5,285 Z M90.5,290 C90.7761424,290 91,289.552285 91,289 C91,288.447715 90.7761424,288 90.5,288 C90.2238576,288 90,288.447715 90,289 C90,289.552285 90.2238576,290 90.5,290 Z M94.5,290 C94.7761424,290 95,289.552285 95,289 C95,288.447715 94.7761424,288 94.5,288 C94.2238576,288 94,288.447715 94,289 C94,289.552285 94.2238576,290 94.5,290 Z" id="Oval-17" fill="#A6A6A6" sketch:type="MSShapeGroup"></path>
            </g>
        </g>
    </g>
</svg>